<?xml version="1.0" encoding="iso-8859-1"?>
<!-- Uploaded to: SVG Repo, www.svgrepo.com, Generator: SVG Repo Mixer Tools -->
<svg height="800px" width="800px" version="1.1" id="Layer_1" xmlns="http://www.w3.org/2000/svg" xmlns:xlink="http://www.w3.org/1999/xlink" 
	 viewBox="0 0 512 512" xml:space="preserve">
<g transform="translate(0 1)">
	<polygon style="fill:#63D3FD;" points="281.6,348.867 213.333,348.867 110.933,251.587 110.933,41.667 358.4,41.667 358.4,251.587 
			"/>
	<polygon style="fill:#3DB9F9;" points="358.4,41.667 358.4,251.587 281.6,348.867 384,251.587 384,41.667 	"/>
	<path style="fill:#FFE100;" d="M471.04,184.173c-1.707-0.853-3.413-1.707-5.12-2.56
		C467.627,181.613,469.333,182.467,471.04,184.173 M452.267,178.2c1.707,0,4.267,0,5.973,0.853
		C456.533,178.2,453.973,178.2,452.267,178.2 M459.947,179.053c1.707,0,2.56,0.853,4.267,0.853
		C463.36,179.907,461.653,179.907,459.947,179.053 M471.04,184.173L384,75.8l25.6,102.4h21.333c16.213,0,29.867,15.36,29.867,34.133
		v256c0,18.773-13.653,34.133-29.867,34.133h21.333c18.773,0,34.133-15.36,34.133-34.133v-256
		C486.4,200.387,480.427,190.147,471.04,184.173"/>
	<g>
		<path style="fill:#FFA800;" d="M68.267,178.2h42.667v-74.24l-61.44,80.213C54.613,179.907,61.44,178.2,68.267,178.2"/>
		<path style="fill:#FFA800;" d="M445.44,184.173L384,103.96v74.24h42.667C433.493,178.2,440.32,179.907,445.44,184.173"/>
	</g>
	<path style="fill:#FDCC00;" d="M319.147,41.667l-9.387-9.387c-17.067-15.36-39.253-24.747-62.293-24.747l0,0
		c-23.893,0-46.933,9.387-64,26.453l-8.533,7.68H319.147z"/>
	<path style="fill:#FFE100;" d="M277.333,348.867H217.6l-106.667-97.28V178.2H89.6c-16.213,0-29.867,15.36-29.867,34.133V280.6
		v187.733c0,18.773,13.653,34.133,29.867,34.133h315.733c16.213,0,29.867-15.36,29.867-34.133v-256
		c0-18.773-13.653-34.133-29.867-34.133H384v73.387L277.333,348.867z"/>
	<path style="fill:#FFFFFF;" d="M59.733,468.333V280.6v-68.267c0-18.773,13.653-34.133,29.867-34.133H68.267
		c-18.773,0-34.133,15.36-34.133,34.133V280.6v187.733c0,18.773,15.36,34.133,34.133,34.133H89.6
		C73.387,502.467,59.733,487.107,59.733,468.333"/>
	<g>
		<path style="fill:#FFA800;" d="M426.667,178.2h-21.333c16.213,0,29.867,15.36,29.867,34.133v256
			c0,18.773-13.653,34.133-29.867,34.133h21.333c18.773,0,34.133-15.36,34.133-34.133v-256C460.8,193.56,445.44,178.2,426.667,178.2
			"/>
		<path style="fill:#FFA800;" d="M426.667,178.2H384l0,0v73.387l66.56-63.147C444.587,181.613,436.053,178.2,426.667,178.2"/>
	</g>
	<path style="fill:#FDCC00;" d="M281.6,348.867h-68.267L45.227,493.08c5.973,5.973,13.653,9.387,23.04,9.387h358.4
		c9.387,0,17.067-3.413,23.04-9.387L281.6,348.867z"/>
	<path d="M426.667,511h-358.4C44.373,511,25.6,492.227,25.6,468.333V348.867c0-5.12,3.413-8.533,8.533-8.533
		s8.533,3.413,8.533,8.533v119.467c0,14.507,11.093,25.6,25.6,25.6h358.4c14.507,0,25.6-11.093,25.6-25.6v-256
		c0-14.507-11.093-25.6-25.6-25.6h-34.133v64.853c0,2.56-0.853,4.267-2.56,5.973l-102.4,97.28c-1.707,1.707-3.413,2.56-5.973,2.56
		h-68.267c-2.56,0-4.267-0.853-5.973-2.56l-102.4-97.28c-1.707-1.707-2.56-4.267-2.56-5.973v-64.853H68.267
		c-14.507,0-25.6,11.093-25.6,25.6V280.6c0,5.12-3.413,8.533-8.533,8.533S25.6,285.72,25.6,280.6v-68.267
		c0-23.893,18.773-42.667,42.667-42.667h42.667c5.12,0,8.533,3.413,8.533,8.533v69.12l97.28,93.013h61.44l97.28-93.013V178.2
		c0-5.12,3.413-8.533,8.533-8.533h42.667c23.893,0,42.667,18.773,42.667,42.667v256C469.333,492.227,450.56,511,426.667,511z"/>
	<path d="M42.667,314.733c0-5.12-3.413-8.533-8.533-8.533s-8.533,3.413-8.533,8.533c0,5.12,3.413,8.533,8.533,8.533
		S42.667,319.853,42.667,314.733"/>
	<path d="M319.147,50.2H174.933c-3.413,0-6.827-1.707-7.68-5.12c-1.707-3.413-0.853-6.827,1.707-9.387l7.68-7.68
		C195.413,9.24,221.013-1,247.467-1c25.6,0,50.347,9.387,68.267,27.307l9.387,9.387c2.56,2.56,3.413,5.973,1.707,9.387
		C325.973,48.493,322.56,50.2,319.147,50.2z M197.12,33.133h99.84c-14.507-11.093-31.573-17.067-50.347-17.067
		C228.693,16.067,211.627,22.04,197.12,33.133z"/>
	<path d="M281.6,357.4h-68.267c-2.56,0-4.267-0.853-5.973-2.56l-102.4-97.28c-1.707-1.707-2.56-4.267-2.56-5.973V41.667
		c0-5.12,3.413-8.533,8.533-8.533H384c5.12,0,8.533,3.413,8.533,8.533v209.92c0,2.56-0.853,4.267-2.56,5.973l-102.4,97.28
		C285.867,356.547,284.16,357.4,281.6,357.4z M216.747,340.333h61.44l97.28-93.013V50.2h-256v197.12L216.747,340.333z"/>
	<path d="M307.2,92.867H187.733c-5.12,0-8.533-3.413-8.533-8.533s3.413-8.533,8.533-8.533H307.2c5.12,0,8.533,3.413,8.533,8.533
		S312.32,92.867,307.2,92.867z"/>
	<path d="M204.8,144.067h-59.733c-5.12,0-8.533-3.413-8.533-8.533s3.413-8.533,8.533-8.533H204.8c5.12,0,8.533,3.413,8.533,8.533
		S209.92,144.067,204.8,144.067z"/>
	<path d="M349.867,144.067H238.933c-5.12,0-8.533-3.413-8.533-8.533s3.413-8.533,8.533-8.533h110.933
		c5.12,0,8.533,3.413,8.533,8.533S354.987,144.067,349.867,144.067z"/>
	<path d="M290.133,178.2h-76.8c-5.12,0-8.533-3.413-8.533-8.533c0-5.12,3.413-8.533,8.533-8.533h76.8
		c5.12,0,8.533,3.413,8.533,8.533C298.667,174.787,295.253,178.2,290.133,178.2z"/>
	<path d="M179.2,178.2h-34.133c-5.12,0-8.533-3.413-8.533-8.533c0-5.12,3.413-8.533,8.533-8.533H179.2
		c5.12,0,8.533,3.413,8.533,8.533C187.733,174.787,184.32,178.2,179.2,178.2z"/>
	<path d="M349.867,178.2h-25.6c-5.12,0-8.533-3.413-8.533-8.533c0-5.12,3.413-8.533,8.533-8.533h25.6
		c5.12,0,8.533,3.413,8.533,8.533C358.4,174.787,354.987,178.2,349.867,178.2z"/>
	<path d="M290.133,212.333h-51.2c-5.12,0-8.533-3.413-8.533-8.533c0-5.12,3.413-8.533,8.533-8.533h51.2
		c5.12,0,8.533,3.413,8.533,8.533C298.667,208.92,295.253,212.333,290.133,212.333z"/>
	<path d="M204.8,212.333h-59.733c-5.12,0-8.533-3.413-8.533-8.533c0-5.12,3.413-8.533,8.533-8.533H204.8
		c5.12,0,8.533,3.413,8.533,8.533C213.333,208.92,209.92,212.333,204.8,212.333z"/>
	<path d="M247.467,246.467H204.8c-5.12,0-8.533-3.413-8.533-8.533c0-5.12,3.413-8.533,8.533-8.533h42.667
		c5.12,0,8.533,3.413,8.533,8.533C256,243.053,252.587,246.467,247.467,246.467z"/>
	<path d="M170.667,246.467h-25.6c-5.12,0-8.533-3.413-8.533-8.533c0-5.12,3.413-8.533,8.533-8.533h25.6
		c5.12,0,8.533,3.413,8.533,8.533C179.2,243.053,175.787,246.467,170.667,246.467z"/>
	<path d="M307.2,280.6c-2.56,0-5.12-0.853-6.827-3.413l-25.6-34.133c-2.56-3.413-1.707-9.387,1.707-11.947
		c3.413-2.56,9.387-1.707,11.947,1.707L307.2,257.56l35.84-50.347c2.56-3.413,7.68-5.12,11.947-1.707
		c3.413,2.56,5.12,7.68,1.707,11.947l-42.667,59.733C312.32,278.893,309.76,280.6,307.2,280.6L307.2,280.6z"/>
	<path d="M426.667,511h-358.4c-11.093,0-21.333-4.267-29.013-11.947c-1.707-1.707-2.56-4.267-2.56-6.827s0.853-5.12,2.56-5.973
		L207.36,342.04c1.707-1.707,3.413-1.707,5.973-1.707H281.6c1.707,0,4.267,0.853,5.973,1.707L455.68,486.253
		c1.707,1.707,2.56,4.267,2.56,5.973c0,2.56-0.853,5.12-2.56,6.827C448,506.733,437.76,511,426.667,511z M58.88,492.227
		c3.413,0.853,5.973,1.707,9.387,1.707h358.4c3.413,0,5.973-0.853,9.387-1.707L278.187,357.4h-62.293L58.88,492.227z"/>
	<path style="fill:#FFA800;" d="M110.933,251.587V178.2H68.267c-9.387,0-17.92,3.413-23.893,9.387L110.933,251.587z"/>
	<path d="M110.933,260.12c-2.56,0-4.267-0.853-5.973-2.56L38.4,194.413c-1.707-1.707-2.56-3.413-2.56-5.973s0.853-4.267,2.56-5.973
		c7.68-8.533,18.773-12.8,29.867-12.8h42.667c5.12,0,8.533,3.413,8.533,8.533v73.387c0,3.413-1.707,6.827-5.12,7.68
		C113.493,259.267,111.787,260.12,110.933,260.12z M58.027,189.293L102.4,231.96v-45.227H68.267
		C64.853,186.733,61.44,187.587,58.027,189.293z"/>
	<path d="M384,260.12c-0.853,0-2.56,0-3.413-0.853c-3.413-1.707-5.12-4.267-5.12-7.68V178.2c0-5.12,3.413-8.533,8.533-8.533h42.667
		c11.093,0,22.187,4.267,29.867,11.947c1.707,1.707,2.56,4.267,2.56,5.973c0,1.707-0.853,4.267-2.56,5.973l-66.56,63.147
		C388.267,259.267,386.56,260.12,384,260.12z M392.533,186.733v44.373l44.373-42.667c-3.413-0.853-6.827-1.707-10.24-1.707H392.533z
		"/>
	<path d="M445.44,192.707c-1.707,0-3.413-0.853-5.12-1.707c-3.413-2.56-8.533-4.267-13.653-4.267H384
		c-5.12,0-8.533-3.413-8.533-8.533v-74.24c0-3.413,2.56-6.827,5.973-7.68c3.413-0.853,7.68,0,9.387,2.56l61.44,79.36
		c2.56,3.413,2.56,7.68-0.853,11.093C449.707,191.853,448,192.707,445.44,192.707z M392.533,169.667h31.573l-31.573-40.107V169.667z
		"/>
	<path d="M49.493,192.707c-2.56,0-4.267-0.853-5.973-2.56c-3.413-3.413-3.413-8.533-0.853-11.093l61.44-80.213
		c2.56-2.56,5.973-4.267,9.387-2.56c3.413,0.853,5.973,4.267,5.973,7.68v74.24c0,5.12-3.413,8.533-8.533,8.533H68.267
		c-5.12,0-10.24,1.707-14.507,4.267C52.907,191.853,51.2,192.707,49.493,192.707z M70.827,169.667H102.4v-40.96L70.827,169.667z"/>
</g>
</svg>