<svg width="80" height="40" viewBox="0 0 80 40" fill="none" xmlns="http://www.w3.org/2000/svg">
<path d="M61.1172 0H61.515C62.0056 0.0397812 62.4963 0.278468 62.8013 0.66302C63.2521 1.21996 63.3715 1.96254 63.4112 2.66534C63.5173 4.80027 63.0532 6.92193 62.4432 8.96403C61.6609 11.6692 60.5603 14.2682 59.6586 16.9335C59.4994 17.3976 59.3403 17.875 59.221 18.3524C59.0221 19.148 59.0486 19.9834 59.0221 20.8056C58.9955 21.5747 59.0486 22.3438 59.1944 23.0996C59.274 23.5107 59.4464 23.9483 59.7646 24.24C60.0564 24.5052 60.4807 24.6246 60.8652 24.5052C61.3824 24.3461 61.7935 23.9483 62.1648 23.5637C62.6819 22.9935 63.1726 22.4101 63.5306 21.7338C64.0345 20.8321 64.3262 19.8376 64.4721 18.8165C64.671 17.2783 64.8301 15.7136 65.387 14.2549C65.5992 13.698 65.8644 13.1278 66.3683 12.783C67.0446 12.3057 68.0656 12.5046 68.5828 13.1411C68.8347 13.4593 68.9011 13.8704 68.9011 14.2549C68.8745 14.7721 68.7684 15.2892 68.5961 15.7799C67.9993 17.5302 67.6546 19.3734 67.7209 21.2299C67.7341 21.6542 67.7739 22.1051 67.9993 22.4896C68.185 22.8079 68.5032 23.0598 68.8745 23.0598C69.2989 23.0598 69.6702 22.8079 69.9354 22.5029C70.3464 22.0388 70.6779 21.5084 70.9431 20.9514C71.4736 19.8243 71.7255 18.5911 71.9509 17.3711C72.1366 16.3368 72.3222 15.3025 72.614 14.2947C72.7731 13.7776 72.972 13.2604 73.3565 12.8626C73.6085 12.5841 73.993 12.478 74.3511 12.478C74.7224 12.4913 75.0671 12.7035 75.3191 12.9819C75.6639 13.3665 75.7302 13.8969 75.6904 14.3875C75.3191 17.3181 74.908 20.2486 74.5765 23.1792C74.3378 25.0091 74.1256 26.839 73.9665 28.669C73.9533 28.8679 74.1919 28.9872 74.3246 28.8546C75.2793 27.9397 76.2208 26.9849 76.9369 25.871C77.2684 25.3671 77.5071 24.8235 77.8253 24.3196C77.9579 24.0941 78.117 23.8687 78.369 23.7892C78.7535 23.6035 79.2442 23.6566 79.5757 23.9218C79.8276 24.1074 79.9602 24.4124 80 24.7174V25.0754C79.9204 25.6854 79.5624 26.2026 79.2972 26.733C78.5679 28.1916 77.5601 29.5176 76.3004 30.5652C75.3986 31.3343 74.3378 31.9178 73.2239 32.3156C73.1576 32.3421 73.0516 32.3554 73.0383 32.4482C72.6272 34.1323 71.7123 35.6837 70.479 36.8904C69.1132 38.243 67.3496 39.1712 65.4799 39.6088C64.4588 39.8342 63.3847 39.9271 62.3504 39.7414C61.2896 39.5425 60.2553 39.0519 59.4994 38.2828C58.8099 37.5932 58.3458 36.6783 58.2662 35.697C58.1866 34.8085 58.4121 33.9068 58.8364 33.1245C59.327 32.236 60.0696 31.4935 60.9448 30.9763C61.7802 30.4724 62.735 30.2337 63.6765 30.1144C64.7505 29.995 65.8512 29.995 66.9385 30.0878C67.6148 30.1409 68.2911 30.2072 68.9674 30.2602C69.3386 30.2868 69.7497 30.4194 70.1077 30.2337C70.3597 30.1144 70.4393 29.8094 70.479 29.5574C70.6382 28.364 70.8769 27.1573 70.731 25.9373C70.7045 25.7782 70.6647 25.5395 70.4658 25.5263C70.2271 25.6323 70.1077 25.8843 69.9751 26.0965C69.5641 26.8921 68.795 27.5021 67.9065 27.6745C67.0181 27.8468 66.0501 27.396 65.639 26.6004C65.4401 26.2689 65.3473 25.871 65.0555 25.5926C64.8566 25.4069 64.5649 25.4069 64.3262 25.513C63.9019 25.6987 63.6234 26.0832 63.2786 26.3749C62.3769 27.1838 61.2365 27.7938 60.0033 27.8601C58.5712 27.9529 57.0993 27.144 56.5026 25.818C56.423 25.6324 56.3567 25.3671 56.118 25.3406C55.8528 25.3008 55.6539 25.513 55.508 25.6987C54.8052 26.5871 54.1422 27.5418 53.214 28.2049C52.6173 28.6292 51.9012 28.9209 51.1586 28.9077C50.3763 28.8944 49.5939 28.4701 49.2226 27.7805C49.0502 27.4755 48.9839 27.091 48.7055 26.8523C48.4933 26.6667 48.1618 26.6932 47.9364 26.839C47.5916 27.038 47.3927 27.396 47.1142 27.6745C46.3451 28.4436 45.2312 28.8281 44.1571 28.722C42.8576 28.5894 41.6774 27.6877 41.2001 26.4678C41.1338 26.2954 41.0409 26.0965 40.8553 26.0434C40.7094 25.9904 40.5901 26.0965 40.4973 26.1893C39.7812 26.8523 39.0651 27.5286 38.2032 27.9927C37.328 28.4568 36.36 28.7618 35.3655 28.7353C34.3179 28.7485 33.2703 28.4303 32.4217 27.8336C31.7056 27.3429 31.1354 26.6534 30.8039 25.8445C30.7111 25.6324 30.5917 25.3937 30.3531 25.3406C30.1409 25.2876 29.9552 25.4467 29.8359 25.6058C29.4779 26.1097 29.0138 26.5473 28.4966 26.8788C27.701 27.396 26.7728 27.754 25.8047 27.754C25.0622 27.754 24.3196 27.4756 23.7892 26.9584C23.219 26.4015 22.914 25.6191 22.7946 24.8367C22.6488 23.8157 22.8609 22.7814 23.1527 21.8134C23.3383 21.1769 23.577 20.5669 23.7229 19.9171C23.8024 19.5856 23.8289 19.2276 23.6831 18.9226C23.5637 18.6839 23.3118 18.538 23.0731 18.432C22.8079 18.3259 22.5294 18.4717 22.3438 18.6441C22.1581 18.8165 22.0653 19.0419 21.9592 19.2674C21.3095 20.8321 20.4343 22.304 19.3602 23.6168C18.3259 24.8898 17.0927 25.9904 15.7666 26.9584C14.2549 28.0325 12.5178 28.8148 10.6746 29.0668C9.33532 29.2524 7.94298 29.1464 6.64346 28.7618C5.87436 28.5364 5.11851 28.2181 4.45549 27.754C3.3151 26.9584 2.40013 25.8578 1.75037 24.6378C1.24648 23.6963 0.861925 22.6885 0.583457 21.6542C0.198905 20.1823 0.066302 18.6706 0 17.159V16.1246C0.0265208 15.0108 0.132604 13.8969 0.35803 12.8095C0.755842 10.8337 1.4719 8.93751 2.43991 7.17388C3.20902 5.7948 4.12399 4.49527 5.27764 3.42118C6.53738 2.24101 8.06232 1.32604 9.74639 0.954746C11.3509 0.596716 13.0748 0.68954 14.5732 1.37908C15.024 1.57799 15.4218 1.86971 15.8992 2.01558C16.2307 2.12166 16.6153 2.08188 16.8938 1.86972C17.3181 1.53821 17.517 1.00779 17.875 0.609979C18.3259 0.119344 19.0552 -0.079564 19.6917 0.106082C20.2884 0.278467 20.7525 0.795624 20.8984 1.39234C20.9912 1.79015 20.9382 2.20123 20.8188 2.58578C20.6332 3.12945 20.3282 3.62009 20.0365 4.11072C19.0685 5.78153 18.3391 7.58495 17.875 9.45466C17.7292 10.0249 17.6098 10.6216 17.3844 11.1653C17.1722 11.6824 16.8407 12.173 16.3633 12.4913C15.9523 12.7698 15.4086 12.9024 14.9179 12.7565C14.4671 12.6239 14.1223 12.2526 13.9367 11.8283C13.7245 11.3774 13.6582 10.8603 13.7245 10.3564C13.8571 9.1762 14.5069 8.1021 14.5334 6.89541C14.5599 6.21913 14.3345 5.51632 13.8041 5.07873C13.0615 4.44223 12.0139 4.26985 11.0724 4.40245C9.95856 4.54831 8.91099 5.07873 8.08884 5.83458C7.2004 6.65672 6.53738 7.69103 6.00696 8.76513C4.46876 11.8415 3.79247 15.3688 4.19029 18.79C4.32289 19.9039 4.5881 21.0177 5.11851 22.0255C5.45002 22.662 5.88762 23.2322 6.43129 23.6831C7.13409 24.2665 7.98276 24.6643 8.88447 24.8367C10.1707 25.0887 11.5233 24.9163 12.73 24.4522C14.3478 23.8289 15.7534 22.7151 16.8672 21.4023C17.4639 20.726 17.9811 19.9834 18.485 19.2276C18.9889 18.5248 19.5193 17.7822 19.7182 16.9203C19.8508 16.3501 19.7315 15.7666 19.5989 15.2097C19.5061 14.4406 19.7978 13.6582 20.3017 13.088C20.6199 12.7565 21.0177 12.4515 21.4818 12.3587C21.9194 12.2791 22.4101 12.3587 22.7814 12.6372C23.1924 12.9289 23.4046 13.4858 23.2587 13.9765C23.1659 14.2947 23.0598 14.6262 23.1527 14.9577C23.2455 15.2362 23.524 15.4086 23.8024 15.4218C24.4389 15.4749 25.1019 15.3555 25.7119 15.5677C26.428 15.8462 27.0645 16.4164 27.3032 17.1722C27.4623 17.6761 27.5153 18.2463 27.3562 18.7502C27.0777 19.7315 26.733 20.6995 26.5473 21.7073C26.4943 22.0388 26.4412 22.3836 26.5341 22.7151C26.5871 22.9538 26.7993 23.1659 27.0512 23.1792C27.4888 23.219 27.8866 22.9803 28.1916 22.6885C28.8149 22.0653 29.2259 21.2697 29.5177 20.4475C29.8757 19.453 30.0613 18.4054 30.3265 17.3844C30.605 16.3368 31.0293 15.3158 31.6924 14.4538C32.6736 13.1543 34.2649 12.3189 35.9092 12.3587C36.8241 12.372 37.7258 12.73 38.3756 13.393C38.9193 13.9499 39.211 14.7058 39.3303 15.4749C39.5293 16.7744 39.2906 18.1402 38.6939 19.3204C37.8717 20.9382 36.1876 22.0918 34.371 22.2377C34.1058 22.2642 33.8008 22.251 33.6019 22.4499C33.4295 22.6222 33.4427 22.8875 33.4693 23.1129C33.5356 23.7229 33.7345 24.3461 34.1455 24.8235C34.6229 25.3141 35.339 25.6589 36.0418 25.4998C36.8507 25.3274 37.5402 24.8102 38.1104 24.2533C38.6541 23.7096 39.1314 23.0996 39.569 22.4631C40.179 21.5879 40.5503 20.5801 40.9216 19.5989C41.2796 18.6309 41.6111 17.6496 42.2079 16.8009C42.6852 16.0849 43.3085 15.4616 44.0511 15.0108C44.8732 14.4936 45.8545 14.2284 46.8357 14.2814C47.1407 14.2947 47.4855 14.308 47.7374 14.1223C47.9629 13.9499 48.0424 13.645 48.0424 13.3665C48.0424 12.8626 48.0955 12.372 48.1353 11.8681C48.2016 11.0857 48.2679 10.3033 48.3739 9.53423C48.5994 7.59821 48.9972 5.68871 49.5143 3.81899C49.7796 2.87751 50.1243 1.92276 50.721 1.12713C50.973 0.769103 51.278 0.424334 51.6758 0.212167C52.0603 -0.0132596 52.551 -8.06189e-07 52.962 0.119343C53.4925 0.278468 53.8372 0.782364 54.0494 1.25974C54.434 2.20123 54.3279 3.2488 54.2483 4.24333C54.1422 5.80806 53.7709 7.34626 53.4527 8.88447C53.1742 10.237 52.9488 11.6028 52.6968 12.9554C52.3521 14.8119 52.0206 16.6816 51.6758 18.538C51.3841 20.063 51.0526 21.6145 51.2382 23.1792C51.2912 23.5903 51.3443 24.0411 51.6227 24.3594C51.8216 24.5848 52.1532 24.6378 52.4184 24.545C52.7764 24.4257 53.0283 24.1074 53.214 23.7892C53.6516 23.0466 54.0361 22.2642 54.4207 21.4818C54.9776 20.3945 55.5346 19.2674 55.7202 18.0474C56.0119 16.1909 56.2108 14.308 56.4761 12.4383C56.6882 11.0459 56.9269 9.65357 57.1523 8.27449C57.4308 6.53738 57.7491 4.81353 58.2397 3.12946C58.4784 2.33383 58.7966 1.55147 59.3536 0.928228C59.8575 0.424333 60.4542 0.066302 61.1172 0ZM35.4981 15.4086C35.2329 15.4881 35.0207 15.7003 34.8483 15.9125C34.4638 16.4031 34.1721 16.9601 33.9732 17.5568C33.761 18.1933 33.5621 18.8563 33.6416 19.5193C33.6549 19.7182 33.8538 19.8641 34.0395 19.8641C34.3975 19.8773 34.7157 19.6784 34.9942 19.4663C35.6174 19.0287 36.0153 18.3524 36.2937 17.6629C36.4661 17.2253 36.5854 16.7479 36.5457 16.2705C36.5191 15.9523 36.36 15.6208 36.0816 15.4616C35.9092 15.3555 35.6837 15.3423 35.4981 15.4086ZM46.8623 16.8937C46.1197 17.0264 45.4567 17.4639 44.9793 18.0474C44.4621 18.6706 44.1041 19.4265 43.9185 20.2221C43.64 21.3492 43.6135 22.5427 43.9185 23.6698C44.0113 24.0146 44.1704 24.3594 44.4356 24.6113C44.608 24.7837 44.8467 24.8765 45.0854 24.8898C45.7086 24.9826 46.2921 24.6378 46.7694 24.2798C47.3662 23.8422 47.7507 23.1924 47.9894 22.5029C48.1353 22.0786 48.0424 21.6277 48.0027 21.1901C47.9364 20.3017 47.9364 19.4132 47.9894 18.5248C48.0027 18.2198 48.0955 17.9281 48.0955 17.6231C48.0955 17.3844 48.0027 17.1192 47.7772 16.9866C47.4988 16.8142 47.1673 16.8407 46.8623 16.8937ZM64.5914 32.7532C63.9549 32.793 63.3184 32.9256 62.7217 33.1775C62.0719 33.4427 61.515 33.9334 61.2365 34.5699C61.0509 34.9677 60.9713 35.4451 61.1702 35.8429C61.3691 36.2539 61.7404 36.5589 62.1515 36.7446C62.7217 36.9965 63.3582 37.0363 63.9549 36.97C65.8379 36.7578 67.628 35.7898 68.8215 34.3179C69.0602 34.0262 69.2458 33.6947 69.4447 33.3764C69.4978 33.2703 69.5773 33.098 69.458 33.0051C69.3121 32.8991 69.1265 32.9388 68.9674 32.9388C68.2911 32.8991 67.6148 32.8328 66.9385 32.8062C66.1561 32.7664 65.3738 32.7001 64.5914 32.7532Z" fill="black"/>
</svg>
