<svg width="800" height="800" viewBox="0 0 800 800" fill="none" xmlns="http://www.w3.org/2000/svg">
<g clip-path="url(#clip0_4_34)">
<path d="M467.899 525.352L409.236 573.348L415.903 557.349L429.235 477.355L535.894 333.365V133.378L478.566 66.7158L433.234 13.3866H55.9272V786.667H535.894V421.359L467.899 525.352Z" fill="#FFDD09"/>
<path d="M15.9299 786.667H55.9272V13.3866H15.9299V786.667Z" fill="white"/>
<path d="M535.895 786.667H575.892V421.359L535.895 474.688V786.667Z" fill="#FD9808"/>
<path d="M575.892 282.701V133.378L509.229 66.7158L455.9 13.3866H433.234L478.564 66.7158L535.893 133.378V333.365" fill="#FD9808"/>
<path d="M455.9 133.378H575.892L522.563 80.0492L455.9 13.3866V133.378Z" fill="#FCC309"/>
<path d="M749.213 161.376L709.215 129.379L739.88 89.3814C745.213 82.7147 755.879 81.382 762.546 86.7144L775.878 97.3809C782.545 102.713 785.21 113.38 779.878 120.046L749.213 161.376Z" fill="#FCC309"/>
<path d="M427.902 573.348L406.571 557.349L433.236 477.355L497.232 525.352L427.902 573.348Z" fill="#63D3FD"/>
<path d="M497.23 525.352L433.234 477.355L695.884 120.046L762.546 173.376L497.23 525.352Z" fill="#63D3FD"/>
<path d="M498.563 522.685L626.554 353.363L559.891 305.367L433.233 477.355L498.563 522.685Z" fill="#63D3FD"/>
<path d="M575.892 146.71H455.9C447.901 146.71 442.568 141.378 442.568 133.378V13.3866C442.568 8.05414 445.235 2.72013 450.568 1.38741C455.9 -1.2796 461.234 0.0546838 465.234 4.05441L585.226 124.046C589.225 128.046 590.558 133.378 587.893 138.712C586.557 144.045 581.224 146.71 575.892 146.71ZM469.232 120.046H543.894L469.232 45.3844V120.046Z" fill="black"/>
<path d="M497.23 538.683C494.563 538.683 491.898 537.351 489.231 536.016L425.235 488.02C419.903 484.02 418.568 474.688 422.568 469.354L685.217 112.047C687.884 109.38 690.55 106.715 694.549 106.715C698.549 106.715 701.216 106.715 705.216 109.382L771.878 162.711C777.211 166.71 778.545 176.043 774.545 181.377L507.896 533.353C505.229 536.018 501.23 538.683 497.23 538.683ZM451.9 474.688L494.565 506.686L743.88 176.041L698.551 140.044L451.9 474.688Z" fill="black"/>
<path d="M749.213 174.708C746.546 174.708 743.88 173.376 741.213 172.041L701.216 140.044C695.883 136.044 694.549 126.712 698.549 121.378L729.214 81.3804C738.546 68.0485 757.212 65.3815 770.544 76.0479L785.21 86.7144C798.542 96.0466 801.209 114.712 791.877 128.044L761.212 170.709C758.545 173.376 755.879 176.041 751.88 176.041C750.545 174.708 749.213 174.708 749.213 174.708ZM726.547 128.046L745.213 142.712L767.879 112.047C769.211 110.714 769.211 109.38 767.879 108.047L753.212 97.3808C751.88 96.0481 750.545 96.0481 749.213 97.3808L726.547 128.046Z" fill="black"/>
<path d="M549.226 240.038C546.559 240.038 543.894 238.706 541.227 237.371C535.894 233.372 534.56 224.039 538.56 218.705L618.554 112.045C621.221 108.046 627.887 105.379 631.886 106.713L685.216 120.045C691.882 121.378 697.215 129.377 694.548 136.044C693.215 142.711 685.216 148.043 678.549 145.376L633.219 134.71L558.557 234.703C557.226 238.704 553.226 240.038 549.226 240.038Z" fill="black"/>
<path d="M427.902 586.68C425.235 586.68 422.569 585.347 419.902 584.013L398.571 568.014C394.571 564.015 391.904 558.682 393.239 553.348L419.904 473.354C421.237 469.354 423.904 466.687 427.903 465.354C431.903 464.021 435.903 465.354 439.903 468.021L503.898 516.018C507.898 518.685 509.231 522.685 509.231 526.684C509.231 530.684 506.564 534.684 503.898 537.351L434.57 585.347C433.234 585.347 430.567 586.68 427.902 586.68ZM422.568 552.017L427.9 556.017L474.564 524.019L439.899 498.688L422.568 552.017Z" fill="black"/>
<path d="M402.569 600.014C399.902 600.014 397.237 598.681 394.57 597.347C387.903 593.347 386.57 585.347 390.57 578.681L405.236 557.349C409.236 550.683 417.235 549.35 423.902 553.35C430.569 557.349 431.902 565.349 427.902 572.016L413.236 593.347C410.569 598.679 406.569 600.014 402.569 600.014Z" fill="black"/>
<path d="M527.895 496.021C525.228 496.021 522.563 494.688 519.896 493.354L457.233 444.024C451.9 440.025 450.566 430.692 454.566 425.358C458.565 420.024 467.898 418.692 473.232 422.691L535.894 472.021C541.227 476.021 542.561 485.353 538.561 490.687C535.894 494.687 531.895 496.021 527.895 496.021Z" fill="black"/>
<path d="M561.226 453.356C558.559 453.356 555.893 452.024 553.226 450.689L489.231 402.693C483.898 398.693 482.564 389.361 486.564 384.027C490.563 378.693 499.895 377.36 505.229 381.36L569.225 429.357C574.558 433.356 575.892 442.688 571.892 448.022C569.225 450.689 565.225 453.356 561.226 453.356Z" fill="black"/>
<path d="M593.223 409.359C590.556 409.359 587.891 408.027 585.224 406.692L521.228 360.028C515.896 356.029 514.562 348.029 518.561 341.363C522.561 336.03 530.561 333.363 537.227 338.696L601.223 385.36C606.555 389.359 607.89 397.359 603.89 404.025C601.223 406.692 597.223 409.359 593.223 409.359Z" fill="black"/>
<path d="M282.578 280.036H122.588C114.589 280.036 109.257 274.703 109.257 266.704C109.257 258.704 114.589 253.372 122.588 253.372H282.578C290.577 253.372 295.909 258.704 295.909 266.704C295.911 274.702 290.577 280.036 282.578 280.036Z" fill="black"/>
<path d="M282.578 440.025H122.588C114.589 440.025 109.257 434.692 109.257 426.693C109.257 418.693 114.589 413.361 122.588 413.361H282.578C290.577 413.361 295.909 418.693 295.909 426.693C295.909 434.692 290.577 440.025 282.578 440.025Z" fill="black"/>
<path d="M282.578 600.014H122.588C114.589 600.014 109.257 594.681 109.257 586.682C109.257 578.682 114.589 573.35 122.588 573.35H282.578C290.577 573.35 295.909 578.682 295.909 586.682C295.911 594.68 290.577 600.014 282.578 600.014Z" fill="black"/>
<path d="M389.237 293.367C385.238 293.367 382.571 292.035 379.905 289.368L353.24 262.702C347.907 257.37 347.907 249.37 353.24 244.036C358.572 238.702 366.572 238.704 371.906 244.036L387.905 260.035L445.234 190.707C450.566 185.375 458.565 184.041 463.899 189.375C469.232 194.707 470.566 202.706 465.232 208.04L398.57 288.035C397.237 292.035 393.237 293.367 389.237 293.367Z" fill="black"/>
<path d="M389.237 453.357C385.238 453.357 382.571 452.024 379.905 449.357L353.24 422.691C347.907 417.359 347.907 409.36 353.24 404.025C358.572 398.691 366.572 398.693 371.906 404.025L387.905 420.024L445.234 350.696C450.566 345.364 458.565 344.03 463.899 349.364C469.232 354.696 470.566 362.696 465.232 368.03L398.57 448.024C397.237 452.024 393.237 453.357 389.237 453.357Z" fill="black"/>
<path d="M575.892 800H15.93C7.93059 800 2.59814 794.668 2.59814 786.668V13.3866C2.59814 5.38714 7.93059 0.0546875 15.93 0.0546875H455.9C459.9 0.0546875 462.567 1.38741 465.232 4.05441L585.224 124.046C587.891 126.713 589.224 129.379 589.224 133.378V282.701C589.224 285.368 587.891 288.033 586.557 290.7L445.234 484.02L422.568 553.348L427.9 557.348L487.896 516.018L565.224 413.358C569.224 409.358 574.556 406.691 579.89 409.358C585.222 410.691 589.222 416.025 589.222 421.357V786.665C589.224 794.666 583.891 800 575.892 800ZM29.2619 773.335H562.558V460.023L507.895 533.351C506.562 534.684 506.562 536.018 505.228 536.018L435.9 584.015C430.567 586.682 425.233 586.682 419.901 584.015L398.57 568.016C394.57 564.016 391.903 558.684 393.237 553.35L419.902 473.355C419.902 472.022 421.235 470.688 421.235 469.355L562.558 278.701V138.711L450.566 26.7185H29.2619V773.335Z" fill="black"/>
<path d="M498.563 536.018C495.896 536.018 493.23 534.685 490.563 533.351L425.235 488.021C422.568 485.354 419.902 482.689 419.902 478.689C419.902 474.689 419.902 472.022 422.569 468.023L549.228 297.367C553.228 292.035 561.227 290.7 567.894 294.7L634.557 342.697C637.224 345.364 639.889 348.029 639.889 352.029C639.889 356.029 639.889 358.696 637.222 362.696L509.231 530.684C506.562 534.684 502.562 536.018 498.563 536.018ZM451.9 473.355L495.897 504.02L607.89 356.03L562.56 324.033L451.9 473.355Z" fill="black"/>
</g>
<defs>
<clipPath id="clip0_4_34">
<rect width="800" height="800" fill="white"/>
</clipPath>
</defs>
</svg>
