<svg width="1409" height="406" viewBox="0 0 1409 406" fill="none" xmlns="http://www.w3.org/2000/svg">
<path d="M84.7852 396.871H3.65234L145.242 8.48047H226.375L84.7852 396.871ZM74.3164 289.566L71.6992 293.754H73.0078L76.9336 292.184L74.3164 289.566ZM66.4648 317.57V320.188L67.7734 321.496H70.3906V320.188L67.7734 317.57H66.4648ZM47.8828 371.223V372.531L63.8477 379.074L65.1562 380.383H66.4648L65.1562 373.84V371.223L67.7734 367.035H57.3047L47.8828 371.223ZM80.5977 271.246L83.4766 274.125H86.0938V271.246H80.5977ZM124.828 233.035V235.652L127.707 238.27L129.016 236.961V235.652L126.398 233.035H124.828ZM157.02 82.8086L159.637 85.6875C167.488 83.0703 171.938 80.3659 172.984 77.5742L171.676 76.2656C167.314 80.6276 162.428 82.8086 157.02 82.8086ZM120.117 118.141V121.02L122.734 123.637V118.141H120.117ZM127.969 126.254V131.488H132.156V130.18L130.848 126.254H127.969ZM147.859 122.328V123.637L161.207 133.059V127.824C156.671 124.684 154.402 120.671 154.402 115.785C153.007 115.785 151.698 117.966 150.477 122.328H147.859ZM151.523 32.8203V34.3906C154.315 34.3906 157.02 36.1354 159.637 39.625H160.945L164.871 35.6992L160.945 28.8945H159.637C156.671 31.5117 153.966 32.8203 151.523 32.8203ZM122.734 142.219L121.426 150.332L125.352 154.258V156.875L118.809 158.184H114.883L112.004 164.988V166.297L114.883 168.914H116.191L122.734 167.605L124.043 174.148H125.352V166.297C127.096 166.297 127.969 164.552 127.969 161.062L129.539 159.492H130.848L136.082 161.062V159.492C136.082 157.747 133.378 156.003 127.969 154.258L126.66 147.715V146.145H129.539V144.836C126.747 144.836 125.352 143.964 125.352 142.219H122.734ZM153.355 167.605L149.43 166.297V171.531H153.355C153.355 168.042 156.496 165.424 162.777 163.68V161.062H161.469L153.355 167.605ZM158.852 177.027V179.645C162.341 178.249 164.086 176.94 164.086 175.719L158.852 177.027ZM129.539 182.262H133.465L134.773 180.953H136.082L134.773 177.027L129.539 182.262ZM142.887 182.262V183.57C142.887 184.966 145.94 187.234 152.047 190.375V187.496C149.43 187.496 148.121 186.188 148.121 183.57L146.812 182.262H142.887ZM125.352 194.301V195.609C129.016 195.609 130.848 197.354 130.848 200.844H133.465C133.465 196.831 135.646 193.341 140.008 190.375C130.237 191.247 125.352 192.556 125.352 194.301ZM150.738 194.301V195.609H156.234L154.664 194.301V192.992L150.738 194.301ZM187.902 39.8867C187.902 43.3763 187.03 45.1211 185.285 45.1211L181.098 43.8125L179.789 45.1211V49.3086C182.581 49.3086 183.977 50.6172 183.977 53.2344H185.285C185.285 48.6979 187.466 46.4297 191.828 46.4297H196.016C194.271 43.2891 191.566 41.1081 187.902 39.8867ZM131.633 101.391V102.961H132.941C133.29 98.7734 136.867 96.6797 143.672 96.6797V90.6602C135.646 93.8008 131.633 97.3776 131.633 101.391ZM171.938 70.5078H174.555L177.172 67.8906H174.555L171.938 70.5078ZM149.168 99.8203L147.598 106.102H151.785L153.094 99.8203H149.168ZM179.789 86.4727V89.0898C177.172 89.0898 175.863 89.9622 175.863 91.707H179.789L181.098 87.7812V86.4727H179.789ZM166.441 94.5859H170.629L173.246 91.707H169.32L166.441 94.5859ZM100.227 225.184V226.492H103.105C103.105 224.573 104.414 223.613 107.031 223.613V220.996L100.227 225.184ZM101.797 181.738V183.047L104.676 187.234V189.852C104.676 192.469 102.844 193.777 99.1797 193.777V195.086H105.984L107.293 188.543C105.548 184.355 103.716 182.087 101.797 181.738ZM89.7578 226.492V229.109H91.0664L93.6836 226.492H89.7578ZM97.6094 239.84L100.227 242.457H104.414V239.84H97.6094ZM85.5703 247.691L88.4492 251.617L92.375 250.309L91.0664 245.074L85.5703 247.691ZM113.836 208.434V211.051H118.023V208.434H113.836Z" fill="#FCC309"/>
<path d="M421.541 15.9023L545.32 366H454.988C441.316 316.358 433.504 291.537 431.551 291.537H334.627L353.426 226.84H412.996V225.619C396.395 173.373 384.35 130.404 376.863 96.7129H375.643C375.643 106.479 359.122 166.456 326.082 276.645C316.642 309.522 310.376 328.565 307.283 333.773H304.842V336.215L307.283 339.877L299.959 366H298.738L295.076 364.779L288.729 366H282.625L278.719 364.779L272.615 366H256.502L248.934 364.779L245.271 366V364.779L244.051 366H229.158V349.887L230.379 342.318L229.158 338.656L230.379 339.877H231.6L232.82 338.656V337.436H229.158V321.322L231.6 318.881H234.041L237.947 320.102V318.881L236.727 315.219H234.041L232.82 316.439L229.158 315.219L230.379 305.209H231.6L241.609 272.982L245.271 275.424L246.492 274.203V272.982L242.83 270.297L250.154 248.08H251.619C251.619 249.708 252.84 250.521 255.281 250.521V258.09L257.723 255.404V244.418C257.723 241.814 260.164 240.512 265.047 240.512V239.291L263.826 235.629H261.385C258.618 235.629 256.176 239.779 254.061 248.08H251.619V246.859L258.943 223.178H263.826V225.619H267.732V221.957L265.047 218.295L267.732 210.727L266.512 209.506H265.047C265.047 215.365 264.233 218.295 262.605 218.295H261.385L288.729 136.264H289.949V138.705H292.391L289.949 135.043C290.926 128.37 292.635 125.033 295.076 125.033L293.611 123.812V122.592L330.965 15.9023H421.541ZM307.283 123.812V126.498L312.41 127.719V126.498L308.504 123.812H307.283ZM283.846 163.607V166.049L289.949 164.828V163.607H283.846ZM282.625 186.068C282.625 190.951 280.916 193.393 277.498 193.393L278.719 194.613V195.834C276.277 195.834 275.057 197.543 275.057 200.961H279.939C279.939 194.288 281.648 190.951 285.066 190.951V186.068H282.625ZM268.953 203.402V204.623L271.395 207.064L272.615 205.844V203.402H268.953ZM304.842 218.295L303.621 219.516V220.736H307.283L304.842 218.295ZM291.17 235.629C293.449 238.884 295.564 240.512 297.518 240.512V248.08H299.959L302.4 243.197C300.773 239.779 298.331 237.257 295.076 235.629H291.17ZM275.057 245.639V246.859L277.498 244.418V243.197L275.057 245.639ZM250.154 260.531V261.752L256.502 264.193L255.281 260.531H250.154ZM292.391 260.531V265.414L293.611 264.193H295.076L293.611 260.531H292.391ZM265.047 267.855V270.297H270.174V267.855H265.047ZM281.404 267.855L279.939 269.076V270.297L283.846 272.982H285.066V271.762L281.404 267.855ZM276.277 280.307V282.748H285.066V281.527L281.404 280.307V281.527L279.939 280.307H276.277ZM257.723 285.189V290.316H261.385C261.385 288.689 262.605 287.875 265.047 287.875V285.189L258.943 286.654L257.723 285.189ZM241.609 305.209C241.609 306.837 240.389 307.65 237.947 307.65L240.389 310.092H241.609L246.492 307.65V305.209H241.609ZM248.934 311.312C245.678 311.312 244.051 312.615 244.051 315.219H248.934V312.533L252.84 311.312L251.619 307.65L250.154 308.871H248.934V311.312ZM302.4 317.66C302.4 319.288 301.18 320.102 298.738 320.102C301.993 323.031 303.621 325.88 303.621 328.646H304.842L307.283 326.205V324.984C307.283 320.915 305.656 318.474 302.4 317.66ZM279.939 320.102V321.322L281.404 324.984H283.846V320.102H279.939ZM273.836 330.111L271.395 339.877L273.836 347.445L265.047 351.107L266.512 354.77H268.953C268.953 352.979 270.581 351.352 273.836 349.887H279.939V352.328C282.218 352.328 283.927 354.851 285.066 359.896H288.729L286.287 351.107C288.729 351.107 289.949 349.887 289.949 347.445L287.508 339.877V338.656H289.949V334.994H287.508L285.066 337.436V338.656L286.287 349.887L275.057 341.098V336.215L277.498 332.553V331.332L273.836 330.111ZM257.723 343.539V345.004L263.826 347.445C263.826 345.818 265.128 345.004 267.732 345.004V343.539L265.047 341.098H260.164L257.723 343.539ZM232.82 349.887V353.549C236.238 352.41 237.947 351.189 237.947 349.887H232.82Z" fill="#BBCDDD"/>
<path d="M601.342 18.9023H675.805C688.174 36.4805 700.219 56.7441 711.938 79.6934H709.252C717.39 87.5059 724.877 97.8411 731.713 110.699V113.141L729.271 117.047C732.527 117.372 734.154 118.593 734.154 120.709L732.934 121.93C740.421 122.743 744.164 126.894 744.164 134.381L741.723 136.822H728.051V139.264H719.262V141.705H711.938L697.045 145.611V144.391L687.035 146.832L684.594 144.391H680.932C680.932 146.832 680.036 148.053 678.246 148.053H677.025L667.26 130.719V129.498H669.701C669.701 131.939 672.143 133.16 677.025 133.16L682.152 130.719L684.594 133.16L690.697 131.939V129.498C686.303 129.498 682.559 127.382 679.467 123.15L673.363 121.93V119.488H669.701V121.93H664.574C662.133 121.93 660.912 119.488 660.912 114.605C657.331 114.605 651.146 105.898 642.357 88.4824C617.455 48.7689 603.783 25.5755 601.342 18.9023ZM927.27 368.756L926.049 367.535L927.27 334.088V285.504C931.339 280.621 935.896 278.18 940.941 278.18L938.5 274.518V268.17L928.49 265.729V254.498L930.932 252.057L928.49 248.395V213.482L929.711 176.373C929.711 170.514 941.348 149.436 964.623 113.141L965.844 114.361L968.285 111.92H965.844L1002.95 46.002H1005.64V258.404C1005.64 260.032 1003.93 260.846 1000.51 260.846V262.066C1003.93 262.066 1005.64 262.88 1005.64 264.508V352.643C1005.64 354.27 1003.52 355.084 999.291 355.084V357.525H1005.64V366.314L1002.95 368.756H962.182L953.393 367.535L948.51 368.756H937.279L936.059 367.535L934.838 368.756H927.27ZM978.295 360.211V357.525L975.854 355.084V360.211H978.295ZM650.902 35.0156V36.2363L653.588 38.6777V37.457L650.902 35.0156ZM962.182 350.201H958.275V351.422L959.496 352.643L962.182 350.201ZM600.121 43.0723H602.562L644.799 115.094C643.171 115.094 642.357 116.314 642.357 118.756C637.312 118.756 634.789 121.604 634.789 127.301L623.803 126.08V127.301C623.803 129.254 619.245 131.37 610.131 133.648L607.689 136.09H606.225L601.342 129.986H600.121V43.0723ZM984.398 340.191H986.84L981.957 336.529H979.516V337.75L984.398 340.191ZM965.844 335.309V332.867H959.496V335.309H965.844ZM953.393 328.961L949.73 325.299L948.51 328.961V330.182L953.393 328.961ZM989.281 307.965L996.85 304.303V303.082H993.188C991.56 303.082 990.746 304.303 990.746 306.744H988.061V307.965H989.281ZM968.285 297.955V293.072L965.844 295.514L968.285 297.955ZM700.707 94.5859L699.486 95.8066V99.7129L701.928 102.154L704.369 99.7129V98.248L700.707 94.5859ZM928.49 280.621L927.27 279.4V273.297L929.711 270.611H933.617L936.059 273.297V275.738C934.431 278.668 931.908 280.702 928.49 281.842V280.621ZM699.486 109.479V119.488C696.068 119.814 694.359 121.035 694.359 123.15V124.371H701.928C701.928 129.417 703.555 131.939 706.811 131.939V128.033L713.158 129.498H715.6L722.924 124.371L721.703 123.15V121.93C721.703 119.814 723.412 118.593 726.83 118.268V117.047H713.158C705.671 114.768 701.928 112.245 701.928 109.479H699.486ZM993.188 275.738L999.291 274.518V273.297H998.07L991.967 274.518V275.738H993.188ZM718.041 119.488V124.371L715.6 126.812H714.379L711.938 124.371L718.041 119.488ZM649.682 128.766H652.367L656.029 133.648L652.367 136.09H649.682L646.02 132.428L649.682 128.766ZM626.244 131.207C629.988 132.835 632.022 134.462 632.348 136.09L629.906 142.438C631.534 142.438 632.348 141.135 632.348 138.531H639.916L643.578 136.09H644.799L647.24 138.531L644.799 142.438V143.658H647.24C651.472 141.868 653.588 140.159 653.588 138.531H657.25C662.133 141.949 664.574 146.1 664.574 150.982V152.203C655.46 153.017 650.089 154.238 648.461 155.865H634.789C634.789 157.656 632.755 158.551 628.686 158.551L625.023 162.213L618.676 160.992H615.014L606.225 165.875H602.562L600.121 163.434V152.203L601.342 150.982L600.121 149.762V143.658H601.342L603.783 146.1L602.562 147.32V148.541L611.352 149.762C611.352 148.134 614.2 146.913 619.896 146.1L618.676 139.752H626.244V138.531L623.803 132.428H625.023L626.244 131.207ZM796.41 345.074C782.25 322.288 759.057 283.469 726.83 228.619C706.648 197.044 695.824 178.896 694.359 174.176H697.045V172.955H694.359L693.139 174.176C687.442 165.224 684.594 159.365 684.594 156.598H694.359V159.283H700.707L706.811 160.504L708.031 155.377L714.379 156.598H721.703L729.271 151.715L732.934 154.156H734.154C734.154 150.087 737.898 147.239 745.385 145.611L749.047 146.832V144.391H750.268C756.127 149.924 759.057 154.889 759.057 159.283C756.941 159.283 755.72 160.911 755.395 164.166L759.057 166.607H760.277L759.057 165.387V161.725H762.719L796.41 218.365V345.074ZM958.275 240.826L955.834 238.385H954.613V240.826H958.275ZM942.162 234.723V232.281L936.059 233.502V234.723L937.279 235.943L942.162 234.723ZM658.471 163.434H663.354L664.574 162.213H666.039C666.853 169.7 669.294 173.443 673.363 173.443L674.584 172.223L677.025 179.547V188.336H672.143V190.777H677.025L677.514 368.268H611.352L606.225 367.047L601.342 368.268L600.121 367.047V178.326C602.074 173.281 605.411 170.758 610.131 170.758C614.037 170.758 616.885 169.944 618.676 168.316H621.117C628.604 171.734 632.348 174.257 632.348 175.885L636.01 174.664C639.428 175.478 641.137 178.326 641.137 183.209H642.357L644.799 180.768V178.326C641.544 175.234 639.916 172.711 639.916 170.758H633.568L627.465 169.537V167.096L631.127 163.434H647.24V165.875H652.367V163.434L650.902 162.213V160.992L658.471 157.33V163.434ZM668.48 160.992H670.922C674.177 162.294 675.805 165.143 675.805 169.537H674.584C670.515 167.91 668.48 165.061 668.48 160.992ZM724.389 166.607V169.049H728.051V166.607H724.389ZM656.029 169.537L654.809 175.885V179.547H656.029C658.471 178.733 659.691 176.292 659.691 172.223L656.029 169.537ZM735.375 175.396V176.617L740.502 177.838H741.723V176.617L739.281 174.176L735.375 175.396ZM739.281 179.059V182.721L741.723 180.279V179.059H739.281ZM759.057 186.383H762.719L766.381 180.279H765.16C763.044 180.279 761.01 182.314 759.057 186.383ZM752.709 186.383V187.848H757.836V186.383H752.709ZM612.572 188.336C615.827 191.917 617.455 195.172 617.455 198.102H618.676C621.768 194.846 624.291 193.219 626.244 193.219V190.777C623.803 190.777 622.582 189.964 622.582 188.336H612.572ZM647.24 190.777C647.24 194.521 643.09 196.555 634.789 196.881V203.229H636.01C639.265 199.811 642.602 198.102 646.02 198.102C646.02 194.846 647.24 193.219 649.682 193.219V190.777H647.24ZM668.48 198.102V199.322L670.922 202.008H672.143L670.922 198.102H668.48ZM649.682 200.787V203.229H657.25V200.787H649.682ZM776.391 201.52L775.17 205.182V206.402H776.391L778.832 203.961V201.52H776.391ZM626.244 203.229L625.023 204.449V205.67H629.906V204.449L626.244 203.229ZM639.916 212.994H644.799L647.24 210.553V209.332C642.357 210.146 639.916 211.367 639.916 212.994ZM773.949 221.295H777.611V218.854H776.391L773.949 221.295ZM612.572 227.887V230.572L615.014 233.014H616.234L615.014 231.793V230.572L616.234 229.107V227.887H612.572ZM989.281 151.471V149.029H988.061L985.619 151.471H989.281ZM763.939 248.639V251.08H765.16L767.602 248.639H763.939ZM896.508 123.639L894.066 126.08H892.846L890.404 123.639V118.756L896.508 123.639ZM954.857 44.7812V46.002L957.543 43.5605V42.3398L954.857 44.7812ZM822.777 301.129L825.219 303.57H826.439V301.129H822.777ZM834.984 235.455H833.764V237.896H837.426L834.984 235.455ZM846.703 207.623V210.064L849.145 212.506H850.365V211.285L849.145 207.623H846.703ZM850.609 185.65V187.115H855.736V185.65H850.609ZM843.285 179.547H842.064L845.727 185.65H849.389C847.436 181.581 845.401 179.547 843.285 179.547ZM866.723 178.326V179.547L869.164 181.988V178.326H866.723ZM869.164 173.443L866.723 175.885V177.105H867.943L873.07 175.885V174.664L869.164 173.443ZM880.395 165.875V168.316H884.057V165.875H880.395ZM897.484 119.244C900.577 116.965 899.844 115.989 895.287 116.314H881.615V117.535C885.033 117.861 886.742 119.081 886.742 121.197V122.418L885.521 123.639L892.846 128.766H895.287L901.635 127.301V131.207C904.89 131.207 906.518 128.684 906.518 123.639H914.086V122.418C911.156 122.255 907.982 122.011 904.564 121.686L899.926 119.244H897.484ZM916.039 96.0508V97.5156L918.48 99.957L920.922 97.5156V93.6094L919.701 92.3887L916.039 96.0508ZM880.395 137.066V136.09H866.723L864.281 133.648C864.281 126.161 868.025 122.011 875.512 121.197L874.291 119.977C874.291 117.861 875.919 116.64 879.174 116.314L876.732 112.408V109.967C883.568 97.1087 891.055 86.7734 899.193 78.9609H896.508C908.227 56.0117 920.271 35.748 932.641 18.1699H1007.1C1004.66 24.8431 990.99 48.0365 966.088 87.75C957.299 105.165 951.114 113.873 947.533 113.873C947.533 118.756 946.312 121.197 943.871 121.197L938.744 127.301V124.859H935.082V127.301L928.979 128.521C925.886 128.684 922.143 128.766 917.748 128.766V131.207L923.852 132.428L926.293 129.986L931.42 132.428C936.303 132.428 938.744 131.207 938.744 128.766H941.186V129.986L931.42 147.32C930.932 150.576 925.561 159.283 915.307 173.443L914.086 172.223H911.4V173.443H914.086C912.621 178.163 901.798 196.311 881.615 227.887C849.389 282.737 826.195 321.555 812.035 344.342V217.633L845.727 160.992H849.389V164.654L848.168 165.875H849.389L853.051 163.434C852.725 160.178 851.505 158.551 849.389 158.551C849.389 154.156 854.027 146.913 863.305 136.822H864.525V139.264L868.188 138.043C873.884 136.741 877.953 136.415 880.395 137.066ZM928.246 146.344C927.758 145.693 927.514 144.798 927.514 143.658H923.852L922.143 145.367L928.246 146.344ZM917.26 145.123L911.4 143.658V144.879L896.508 140.973H889.184V138.531H888.451L889.916 144.635H897.24L903.588 143.414L904.809 148.541L910.912 147.32H917.26V145.123ZM887.475 138.531H882.836C883.161 139.02 883.324 139.671 883.324 140.484H884.545L887.475 138.531Z" fill="#BBCDDD"/>
<path d="M1162.44 103.872L1158.87 101.787V102.978L1160.06 106.255L1162.44 103.872ZM1138.61 97.3193H1136.53L1135.34 98.5107V100.596H1136.53L1138.61 98.5107V97.3193ZM1093.64 81.831H1092.45L1086.79 95.2344L1085.89 96.1279V97.3193L1091.26 96.1279H1093.64L1096.92 98.5107V89.5752L1093.64 81.831ZM1177.93 109.233L1175.25 111.616V113.999H1177.93V109.233ZM1210.1 146.465H1207.72L1205.63 148.848L1206.82 150.039H1207.72L1210.1 147.954V146.465ZM1275.33 186.973L1082.92 116.68V48.4717L1399.23 163.74V186.973H1346.22V186.079L1345.32 186.973H1275.33ZM1306.9 142.593H1304.52L1302.13 144.678H1306.9V142.593ZM1300.05 149.145H1295.58V152.72H1296.77L1300.05 151.528V149.145ZM1352.77 170.293H1351.58L1343.83 181.313H1348C1350.78 177.541 1354.16 175.654 1358.13 175.654C1358.13 174.463 1356.34 173.371 1352.77 172.378V170.293ZM1286.65 144.678L1279.8 143.784L1276.52 147.061H1274.14L1273.24 141.401V138.125L1267.29 135.742H1266.39L1264.01 138.125V139.316L1265.2 144.678L1259.54 145.869V147.061H1266.39C1266.39 148.451 1267.78 149.145 1270.56 149.145L1272.05 150.635V151.528L1270.56 155.996H1272.05C1273.44 155.996 1274.93 153.713 1276.52 149.145L1281.88 148.252H1283.37V150.635H1284.26C1284.26 148.252 1285.06 147.061 1286.65 147.061V144.678ZM1314.64 174.761L1315.84 171.484H1311.37V174.761C1314.35 174.761 1316.53 177.441 1317.92 182.803H1320.01V181.611L1314.64 174.761ZM1306.6 179.526H1304.52C1305.71 182.505 1306.8 183.994 1307.79 183.994L1306.6 179.526ZM1252.69 150.635V153.911L1253.88 154.805V155.996L1257.16 154.805L1252.69 150.635ZM1302.13 166.123H1301.24C1300.05 166.123 1298.06 168.605 1295.28 173.569H1297.96C1297.96 171.385 1299.06 170.293 1301.24 170.293L1302.13 169.399V166.123ZM1245.84 159.272C1245.25 151.131 1244.15 147.061 1242.56 147.061H1241.67C1241.67 150.039 1240.18 151.528 1237.2 151.528V153.911C1240.58 153.911 1243.46 155.698 1245.84 159.272ZM1292.01 172.676H1291.11V177.144L1292.01 175.952H1293.2L1292.01 172.676ZM1330.13 162.549C1327.35 155.798 1324.28 152.422 1320.9 152.422H1319.71V153.315C1323.28 153.713 1325.07 156.79 1325.07 162.549H1330.13ZM1371.83 171.187L1366.47 169.995V173.569L1371.83 174.463V171.187ZM1216.65 125.913H1215.46V128.296C1217.05 128.296 1217.84 129.388 1217.84 131.572H1220.23L1216.65 125.913ZM1247.63 131.87C1251 130.282 1252.89 128.693 1253.29 127.104H1252.1L1248.52 129.487H1246.44C1244.25 129.487 1243.16 127.998 1243.16 125.02H1241.97V130.679L1247.63 131.87ZM1215.46 116.978H1213.37V118.169L1215.46 120.254V116.978ZM1204.14 123.53L1202.06 125.913V129.487H1204.14V123.53ZM1197.59 113.403L1194.31 115.786L1195.5 119.062L1199.97 118.169L1197.59 113.403ZM1230.65 137.231H1228.57V140.806H1230.65V137.231ZM1311.37 217.949L1312.56 214.375V213.481L1308.99 215.566L1311.37 217.949ZM1332.81 210.205L1334.9 212.29H1336.09V210.205L1334.9 209.014H1332.81V210.205ZM1399.53 200.376V224.502L1083.51 339.473V271.265L1278.01 200.376H1374.81L1374.51 201.27V210.205L1377.79 207.822H1380.17L1385.53 209.014V207.822L1384.64 206.929L1381.96 200.376H1399.53ZM1293.5 225.693H1296.18V223.311L1293.5 220.928V225.693ZM1261.33 259.648L1263.71 261.733H1264.61L1265.8 260.542L1263.71 258.159H1261.33V259.648ZM1134.74 285.264C1134.74 289.831 1132.96 294.001 1129.38 297.773L1130.27 298.667C1132.66 297.873 1134.94 294.199 1137.12 287.646L1134.74 285.264ZM1164.53 256.372H1169.29L1166.91 254.287H1164.53V256.372ZM1171.38 263.223L1174.65 264.414H1175.85V260.84H1171.38V263.223ZM1168.1 279.902C1164.33 280.895 1162.44 281.987 1162.44 283.179C1166.61 283.179 1169.99 285.065 1172.57 288.838H1177.04L1169.29 277.52H1168.1V279.902ZM1092.75 280.796C1092.75 282.782 1091.55 285.065 1089.17 287.646V288.54L1095.13 291.816L1098.4 288.54V287.646C1095.43 285.462 1093.94 283.179 1093.94 280.796H1092.75ZM1184.78 258.755C1186.37 258.755 1187.16 259.847 1187.16 262.031H1188.06V259.648H1189.55L1194.91 260.84C1196.5 265.407 1197.99 267.69 1199.38 267.69H1200.87L1199.38 263.223V262.031L1200.87 260.84C1203.65 260.84 1205.04 260.145 1205.04 258.755H1211.89V257.563L1206.23 256.372L1207.42 251.011V249.819L1205.04 247.436H1204.14L1198.18 249.819V253.096L1197.29 258.755H1194.91L1191.63 255.478L1184.78 256.372V258.755ZM1200.87 289.136V290.327H1202.95C1204.34 284.966 1206.52 282.285 1209.5 282.285V279.009H1205.04L1206.23 282.285L1200.87 289.136ZM1213.08 291.221C1214.07 291.221 1215.16 289.731 1216.35 286.753H1214.27L1213.08 291.221ZM1214.27 266.499L1217.54 267.69V266.499L1218.74 265.605V262.031L1214.27 266.499ZM1218.74 276.626L1219.63 277.817C1221.81 277.817 1222.91 278.909 1222.91 281.094H1225.59C1222.81 275.931 1220.82 273.35 1219.63 273.35H1218.74V276.626ZM1228.86 258.755C1227.27 258.755 1226.18 262.825 1225.59 270.967C1227.97 267.393 1230.85 265.605 1234.22 265.605V263.223C1231.25 263.223 1229.76 261.733 1229.76 258.755H1228.86ZM1227.67 283.477H1228.86L1229.76 284.668V279.902H1228.86L1227.67 283.477ZM1098.7 311.475C1099.69 314.453 1101.48 316.737 1104.06 318.325V314.751C1104.06 310.978 1105.95 309.092 1109.72 309.092V308.198C1107.54 308.198 1106.45 307.007 1106.45 304.624H1102.87L1101.98 305.518L1102.87 309.092C1102.87 310.68 1101.48 311.475 1098.7 311.475ZM1150.53 263.818C1147.15 263.818 1144.07 267.194 1141.29 273.945H1146.36C1146.36 268.385 1148.15 265.407 1151.72 265.01V263.818H1150.53ZM1122.23 300.156V302.241L1124.32 300.156V297.773L1122.23 300.156ZM1149.04 281.987L1154.4 280.796V277.52L1149.04 278.711V281.987ZM1137.72 305.518H1138.91L1142.19 304.624V301.348C1140.8 301.348 1140.1 302.44 1140.1 304.624H1137.72V305.518ZM1142.19 295.688V298.965L1144.57 296.88V293.306L1142.19 295.688ZM1251.2 243.267H1253.58C1253.58 241.082 1254.38 239.99 1255.97 239.99V237.607H1254.78L1251.2 243.267ZM1218.14 238.799C1218.54 240.387 1220.42 241.976 1223.8 243.564L1229.46 242.373V236.714H1228.27C1228.27 239.692 1227.18 241.182 1224.99 241.182H1222.91L1219.33 238.799H1218.14ZM1255.97 231.948L1258.05 229.863V228.672H1255.97V231.948ZM1267.29 240.884H1269.37V237.607L1267.29 235.225V240.884ZM1271.46 229.863L1275.92 230.757L1277.12 227.48L1273.84 225.098L1271.46 229.863ZM1240.78 252.5H1242.86V248.926H1240.78V252.5Z" fill="#FCC309"/>
</svg>
